<?xml version="1.0" encoding="iso-8859-1"?>
<!-- Generator: Adobe Illustrator 19.0.0, SVG Export Plug-In . SVG Version: 6.00 Build 0)  -->
<svg version="1.1" id="Capa_1" xmlns="http://www.w3.org/2000/svg" xmlns:xlink="http://www.w3.org/1999/xlink" x="0px" y="0px"
	 viewBox="0 0 512 512" style="enable-background:new 0 0 512 512;" xml:space="preserve">
<g>
	<g>
		<path d="M502,324.5h-16.999v-65c0-5.522-4.478-10-10-10h-5.319c2.895-5.368,4.541-11.511,4.541-18.039
			c0-20.932-17.029-37.961-37.961-37.961H306.001c-5.522,0-10,4.478-10,10v56c0,2.297,0.783,4.407,2.085,6.096
			c-7.401,8.379-11.907,19.372-11.907,31.404c0,10.244,3.271,19.733,8.807,27.5h-27.973c1.009-2.138,1.237-4.571,0.616-6.87
			l-48.332-178.988c-1.436-5.315-6.896-8.477-12.224-7.057L166,142.506V118.5c0-5.522-4.478-10-10-10h-50v-24
			c0-5.522-4.478-10-10-10H36c-5.522,0-10,4.478-10,10v240H10c-5.522,0-10,4.478-10,10v35c0,5.522,4.478,10,10,10h17.001v48
			c0,5.522,4.478,10,10,10h33c5.522,0,10-4.478,10-10v-48h352v48c0,5.522,4.478,10,10,10h33c5.522,0,10-4.478,10-10v-48H502
			c5.522,0,10-4.478,10-10v-35C512,328.978,507.522,324.5,502,324.5z M316.001,213.5L316.001,213.5h120.261
			c9.903,0,17.961,8.058,17.961,18.039c0,9.903-8.058,17.961-17.961,17.961H333.68h-17.679V213.5z M333.68,269.5h102.582h28.739v17
			h-31c-5.522,0-10,4.478-10,10c0,5.522,4.478,10,10,10h31v18H333.68c-15.163,0-27.5-12.337-27.5-27.5
			C306.18,281.837,318.517,269.5,333.68,269.5z M202.586,153.473l43.118,159.68l-34.313,9.124l-43.118-159.68L202.586,153.473z
			 M166.001,230.904l25.274,93.596h-25.274V230.904z M106.001,128.5h40v196h-40V128.5z M46.001,94.5h40v24v206h-40V94.5z
			 M60.001,417.5h-13v-38h13V417.5z M465.001,417.5h-13v-38h13V417.5z M492,359.5h-16.999h-33h-372h-33H20v-15h16.001h60h60h48.256
			c0.024,0,0.047,0.003,0.071,0.003c0.015,0,0.03-0.003,0.045-0.003H333.68h141.321H492V359.5z"/>
	</g>
</g>
<g>
	<g>
		<circle cx="405.5" cy="296.5" r="10"/>
	</g>
</g>
<g>
</g>
<g>
</g>
<g>
</g>
<g>
</g>
<g>
</g>
<g>
</g>
<g>
</g>
<g>
</g>
<g>
</g>
<g>
</g>
<g>
</g>
<g>
</g>
<g>
</g>
<g>
</g>
<g>
</g>
</svg>
